<svg xmlns="http://www.w3.org/2000/svg" viewBox="0 0 512 512">
  <defs>
    <linearGradient id="background" x1="0" y1="0" x2="1" y2="1">
      <stop offset="0" stop-color="#e6f4ff"/>
      <stop offset="0.48" stop-color="#f7fbff"/>
      <stop offset="0.52" stop-color="#fff9fb"/>
      <stop offset="1" stop-color="#f9dce5"/>
    </linearGradient>
    <linearGradient id="heart" x1="0" y1="0" x2="1" y2="0">
      <stop offset="0" stop-color="#5d9dcc"/>
      <stop offset="0.5" stop-color="#7ab7e1"/>
      <stop offset="0.5" stop-color="#e481a0"/>
      <stop offset="1" stop-color="#c65176"/>
    </linearGradient>
    <filter id="shadow" x="-30%" y="-30%" width="160%" height="160%">
      <feDropShadow dx="0" dy="18" stdDeviation="18" flood-color="#6f6070" flood-opacity="0.18"/>
    </filter>
  </defs>
  <rect width="512" height="512" fill="url(#background)"/>
  <circle cx="256" cy="256" r="164" fill="#ffffff" fill-opacity="0.86" filter="url(#shadow)"/>
  <path d="M256 382C225 353 146 296 146 222c0-51 35-86 81-86 27 0 52 14 68 38 16-24 41-38 68-38 46 0 81 35 81 86 0 74-79 131-110 160l-39 36-39-36Z" fill="none" stroke="url(#heart)" stroke-width="30" stroke-linecap="round" stroke-linejoin="round"/>
  <circle cx="208" cy="225" r="10" fill="#6aa9d8"/>
  <circle cx="304" cy="225" r="10" fill="#d9688b"/>
</svg>
